<svg width="60" xmlns="http://www.w3.org/2000/svg" height="60" fill="none"><g class="feather feather-link" style="fill: rgb(0, 0, 0);"><path d="M25.000,32.500C27.172,35.404,30.499,37.222,34.117,37.481C37.734,37.740,41.286,36.415,43.850,33.850L51.350,26.350C56.087,21.445,56.019,13.649,51.198,8.827C46.376,4.006,38.580,3.938,33.675,8.675L29.375,12.950" fill="none" style="fill: none;" class="fills"/><g fill="none" stroke-linejoin="round" class="strokes"><path d="M25.000,32.500C27.172,35.404,30.499,37.222,34.117,37.481C37.734,37.740,41.286,36.415,43.850,33.850L51.350,26.350C56.087,21.445,56.019,13.649,51.198,8.827C46.376,4.006,38.580,3.938,33.675,8.675L29.375,12.950" style="fill: none; stroke-width: 4; stroke: rgb(243, 252, 240); stroke-opacity: 1;" class="stroke-shape"/></g><path d="M35.000,27.500C32.828,24.596,29.501,22.778,25.883,22.519C22.266,22.260,18.714,23.585,16.150,26.150L8.650,33.650C3.913,38.555,3.981,46.351,8.802,51.173C13.624,55.994,21.420,56.062,26.325,51.325L30.600,47.050" fill="none" style="fill: none;" class="fills"/><g fill="none" stroke-linejoin="round" class="strokes"><path d="M35.000,27.500C32.828,24.596,29.501,22.778,25.883,22.519C22.266,22.260,18.714,23.585,16.150,26.150L8.650,33.650C3.913,38.555,3.981,46.351,8.802,51.173C13.624,55.994,21.420,56.062,26.325,51.325L30.600,47.050" style="fill: none; stroke-width: 4; stroke: rgb(243, 252, 240); stroke-opacity: 1;" class="stroke-shape"/></g></g></svg>