<svg width="60" xmlns="http://www.w3.org/2000/svg" height="60" fill="none"><g class="feather feather-mail" style="fill: rgb(0, 0, 0);"><path d="M10.000,10.000L50.000,10.000C52.750,10.000,55.000,12.250,55.000,15.000L55.000,45.000C55.000,47.750,52.750,50.000,50.000,50.000L10.000,50.000C7.250,50.000,5.000,47.750,5.000,45.000L5.000,15.000C5.000,12.250,7.250,10.000,10.000,10.000ZZ" fill="none" style="fill: none;" class="fills"/><g fill="none" stroke-linejoin="round" class="strokes"><path d="M10.000,10.000L50.000,10.000C52.750,10.000,55.000,12.250,55.000,15.000L55.000,45.000C55.000,47.750,52.750,50.000,50.000,50.000L10.000,50.000C7.250,50.000,5.000,47.750,5.000,45.000L5.000,15.000C5.000,12.250,7.250,10.000,10.000,10.000ZZ" style="fill: none; stroke-width: 4; stroke: rgb(255, 210, 63); stroke-opacity: 1;" class="stroke-shape"/></g><path d="M55.000,15.000L30.000,32.500L5.000,15.000" fill="none" style="fill: none;" class="fills"/><g fill="none" stroke-linejoin="round" class="strokes"><path d="M55.000,15.000L30.000,32.500L5.000,15.000" style="fill: none; stroke-width: 4; stroke: rgb(255, 210, 63); stroke-opacity: 1;" class="stroke-shape"/></g></g></svg>