<svg width="60" xmlns="http://www.w3.org/2000/svg" height="60" fill="none"><g class="feather feather-phone-forwarded" style="fill: rgb(0, 0, 0);"><path d="M47.500,2.500L57.500,12.500L47.500,22.500" fill="none" style="fill: none;" class="fills"/><g fill="none" stroke-linejoin="round" class="strokes"><path d="M47.500,2.500L57.500,12.500L47.500,22.500" style="fill: none; stroke-width: 4; stroke: rgb(255, 210, 63); stroke-opacity: 1;" class="stroke-shape"/></g><path d="M37.500,12.500L57.500,12.500" fill="none" style="fill: none;" class="fills"/><g fill="none" stroke-linejoin="round" class="strokes"><path d="M37.500,12.500L57.500,12.500" style="fill: none; stroke-width: 4; stroke: rgb(255, 210, 63); stroke-opacity: 1;" class="stroke-shape"/></g><path d="M55.000,42.300L55.000,49.800C55.006,51.208,54.418,52.553,53.380,53.505C52.343,54.456,50.952,54.927,49.550,54.800C41.857,53.964,34.467,51.335,27.975,47.125C21.935,43.287,16.813,38.165,12.975,32.125C8.750,25.603,6.121,18.177,5.300,10.450C5.174,9.052,5.641,7.666,6.587,6.629C7.533,5.592,8.871,5.001,10.275,5.000L17.775,5.000C20.285,4.975,22.424,6.815,22.775,9.300C23.092,11.700,23.679,14.057,24.525,16.325C25.212,18.152,24.773,20.212,23.400,21.600L20.225,24.775C23.784,31.034,28.966,36.216,35.225,39.775L38.400,36.600C39.788,35.227,41.848,34.788,43.675,35.475C45.943,36.321,48.300,36.908,50.700,37.225C53.214,37.580,55.063,39.762,55.000,42.300ZZ" fill="none" style="fill: none;" class="fills"/><g fill="none" stroke-linejoin="round" class="strokes"><path d="M55.000,42.300L55.000,49.800C55.006,51.208,54.418,52.553,53.380,53.505C52.343,54.456,50.952,54.927,49.550,54.800C41.857,53.964,34.467,51.335,27.975,47.125C21.935,43.287,16.813,38.165,12.975,32.125C8.750,25.603,6.121,18.177,5.300,10.450C5.174,9.052,5.641,7.666,6.587,6.629C7.533,5.592,8.871,5.001,10.275,5.000L17.775,5.000C20.285,4.975,22.424,6.815,22.775,9.300C23.092,11.700,23.679,14.057,24.525,16.325C25.212,18.152,24.773,20.212,23.400,21.600L20.225,24.775C23.784,31.034,28.966,36.216,35.225,39.775L38.400,36.600C39.788,35.227,41.848,34.788,43.675,35.475C45.943,36.321,48.300,36.908,50.700,37.225C53.214,37.580,55.063,39.762,55.000,42.300ZZ" style="fill: none; stroke-width: 4; stroke: rgb(255, 210, 63); stroke-opacity: 1;" class="stroke-shape"/></g></g></svg>